# xmcd
#
# Track frame offsets:
#	150
#	12256
#	22568
#	34625
#	45160
#	56049
#	67242
#	75704
#	85726
#	95988
#	106455
#	119790
#	134471
#	146813
#	156772
#	167879
#	181075
#	189744
#	199021
#	212790
#
# Disc length: 2985 seconds
#
# Revision: 1
# Processed by: cddbd v1.5.2PL0 Copyright (c) Steve Scherf et al.
# Submitted via: audiograbber 1.83.01
#
DISCID=1b0ba714
DTITLE=Varios - Super Oldies - CD 2
DYEAR=1900
DGENRE=Oldies
TTITLE0=Dion  - The Wanderer
TTITLE1=Roy "C" - Shotgun Wedding
TTITLE2=The Lovin' Spoonful - Summer In The City
TTITLE3=Del Shannon - Runaway
TTITLE4=Frankie Avalon - Just Ask Your Heart
TTITLE5=Johnny Tillotson - Poetry In Motion
TTITLE6=The Chiffons - He's So Fine
TTITLE7=The Champs - Tequila
TTITLE8=1910 Fruitgum Company - Simon Says
TTITLE9=Ohio Express - Yummy Yummy
TTITLE10=Los Bravos  - Black Is Black
TTITLE11=The Tornados - Telstar
TTITLE12=Royal Guardsmen - Snoopy Vs. The Red Baron
TTITLE13=Johnny Ad The Hurricanes - Red River Rock
TTITLE14=Little Eva - The Loco-Motion
TTITLE15=The Small Faces - Sha-La-La-La-Le
TTITLE16=Ray Charles - Hit The Road Jack
TTITLE17=Duane Eddy - Pepe
TTITLE18=Tom Jones - Green, Green Gras Of Home
TTITLE19=Kay Cee Jones, Chris Howland - Japanisches Abschiedslied
EXTD=
EXTT0=
EXTT1=
EXTT2=
EXTT3=
EXTT4=
EXTT5=
EXTT6=
EXTT7=
EXTT8=
EXTT9=
EXTT10=
EXTT11=
EXTT12=
EXTT13=
EXTT14=
EXTT15=
EXTT16=
EXTT17=
EXTT18=
EXTT19=
PLAYORDER=
